<?xml version="1.0" encoding="UTF-8" standalone="no"?>
<!-- Created with Inkscape (http://www.inkscape.org/) -->

<svg
   xmlns:dc="http://purl.org/dc/elements/1.1/"
   xmlns:cc="http://creativecommons.org/ns#"
   xmlns:rdf="http://www.w3.org/1999/02/22-rdf-syntax-ns#"
   xmlns:svg="http://www.w3.org/2000/svg"
   xmlns="http://www.w3.org/2000/svg"
   xmlns:sodipodi="http://sodipodi.sourceforge.net/DTD/sodipodi-0.dtd"
   xmlns:inkscape="http://www.inkscape.org/namespaces/inkscape"
   id="svg24422"
   version="1.1"
   inkscape:version="0.91 r13725"
   xml:space="preserve"
   width="312.08749"
   height="166.4375"
   viewBox="0 0 312.08749 166.4375"
   sodipodi:docname="olympic_symbol_black_0.svg"><metadata
     id="metadata24428"><rdf:RDF><cc:Work
         rdf:about=""><dc:format>image/svg+xml</dc:format><dc:type
           rdf:resource="http://purl.org/dc/dcmitype/StillImage" /><dc:title /></cc:Work></rdf:RDF></metadata><defs
     id="defs24426" /><sodipodi:namedview
     pagecolor="#ffffff"
     bordercolor="#666666"
     borderopacity="1"
     objecttolerance="10"
     gridtolerance="10"
     guidetolerance="10"
     inkscape:pageopacity="0"
     inkscape:pageshadow="2"
     inkscape:window-width="1920"
     inkscape:window-height="1027"
     id="namedview24424"
     showgrid="false"
     borderlayer="true"
     inkscape:showpageshadow="false"
     inkscape:zoom="4.0950055"
     inkscape:cx="156.04375"
     inkscape:cy="83.21875"
     inkscape:window-x="-8"
     inkscape:window-y="-8"
     inkscape:window-maximized="1"
     inkscape:current-layer="layer2" /><g
     id="g24430"
     inkscape:groupmode="layer"
     inkscape:label="ink_ext_XXXXXX"
     transform="matrix(1.25,0,0,-1.25,0,166.4375)"
     style="display:none"><g
       id="g24432"
       transform="scale(0.1,0.10000225)"><path
         d="m 850.785,822.246 c 0,188.224 -152.582,340.804 -340.805,340.804 -188.222,0 -340.8,-152.58 -340.8,-340.804 0,-188.258 152.578,-340.836 340.8,-340.836 9.922,0 19.77,0.422 29.473,1.231 -0.707,8.964 -1.078,18.047 -1.078,27.179 0,10.086 0.438,20.086 1.293,29.942 -9.742,-1.035 -19.664,-1.574 -29.688,-1.574 -156.871,0 -284.011,127.187 -284.011,284.058 0,156.875 127.14,284.024 284.011,284.024 156.852,0 284.008,-127.149 284.008,-284.024 0,-126.012 -82.058,-232.855 -195.652,-270.023 -2.074,-13.809 -3.156,-28.02 -3.156,-42.403 0,-5.879 0.195,-11.73 0.535,-17.539 146.734,38.016 255.07,171.328 255.07,329.965"
         style="fill:#117fcd;fill-opacity:1;fill-rule:nonzero;stroke:none"
         id="path24436"
         inkscape:connector-curvature="0" /><path
         d="m 2327.7,822.246 c 0,-188.258 -152.6,-340.836 -340.82,-340.836 -178.16,0 -324.36,136.68 -339.53,310.86 20.26,-2.09 39.9,-6.336 58.63,-12.469 20.49,-136.738 138.43,-241.613 280.9,-241.613 156.84,0 284,127.187 284,284.058 0,156.875 -127.16,284.024 -284,284.024 -150.98,0 -274.45,-117.797 -283.5,-266.52 -18.2,4.719 -37,7.969 -56.27,9.637 13.85,175.533 160.65,313.663 339.77,313.663 188.22,0 340.82,-152.58 340.82,-340.804"
         style="fill:#ee2049;fill-opacity:1;fill-rule:nonzero;stroke:none"
         id="path24438"
         inkscape:connector-curvature="0" /><path
         d="m 1901.13,492.281 c -9.04,-148.683 -132.51,-266.472 -283.48,-266.472 -156.86,0 -284.04,127.144 -284.04,284.011 0,126.016 82.08,232.832 195.69,269.981 2.07,13.855 3.13,28.027 3.13,42.445 0,5.879 -0.18,11.723 -0.54,17.504 -146.69,-38.008 -255.06,-171.316 -255.06,-329.93 0,-188.218 152.57,-340.84 340.82,-340.84 179.1,0 325.9,138.129 339.76,313.661 -19.28,1.672 -38.08,4.933 -56.28,9.64 z m -283.48,301.551 c 142.43,0 260.38,-104.863 280.88,-241.609 18.75,-6.125 38.36,-10.371 58.63,-12.461 -15.17,174.187 -161.37,310.859 -339.51,310.859 -9.94,0 -19.76,-0.426 -29.48,-1.234 0.7,-8.961 1.08,-18.028 1.08,-27.141 0,-10.094 -0.44,-20.082 -1.31,-29.976 9.76,1.027 19.66,1.562 29.71,1.562"
         style="fill:#00a650;fill-opacity:1;fill-rule:nonzero;stroke:none"
         id="path24440"
         inkscape:connector-curvature="0" /><path
         d="M 1218.97,482.691 C 1205.12,307.109 1058.3,168.98 879.195,168.98 c -188.218,0 -340.82,152.622 -340.82,340.84 0,158.614 108.355,291.922 255.094,329.93 0.347,-5.781 0.519,-11.625 0.519,-17.504 0,-14.418 -1.066,-28.59 -3.148,-42.445 C 677.246,742.652 595.18,635.836 595.18,509.82 c 0,-156.867 127.148,-284.011 284.015,-284.011 150.975,0 274.435,117.789 283.495,266.472 18.2,-4.707 37.02,-7.968 56.28,-9.59 z M 849.508,792.27 c 0.851,9.894 1.277,19.882 1.277,29.976 0,9.113 -0.355,18.18 -1.062,27.141 9.707,0.808 19.558,1.234 29.472,1.234 178.145,0 324.365,-136.672 339.535,-310.859 -20.27,2.09 -39.9,6.336 -58.67,12.461 -20.47,136.746 -138.41,241.609 -280.865,241.609 -10.023,0 -19.949,-0.535 -29.687,-1.562"
         style="fill:#f9a91f;fill-opacity:1;fill-rule:nonzero;stroke:none"
         id="path24442"
         inkscape:connector-curvature="0" /><path
         d="m 1248.42,538.188 c -142.46,0 -260.389,104.875 -280.869,241.613 -18.762,6.133 -38.403,10.379 -58.645,12.469 15.16,-174.18 161.384,-310.86 339.514,-310.86 9.93,0 19.76,0.422 29.47,1.231 -0.71,8.964 -1.06,18.047 -1.06,27.179 0,10.086 0.44,20.086 1.3,29.942 -9.77,-1.035 -19.69,-1.574 -29.71,-1.574 z m 0,624.862 c -179.09,0 -325.916,-138.13 -339.744,-313.663 19.25,-1.668 38.047,-4.918 56.258,-9.637 9.066,148.723 132.536,266.52 283.486,266.52 156.86,0 284.01,-127.149 284.01,-284.024 0,-126.012 -82.05,-232.855 -195.66,-270.023 -2.05,-13.809 -3.16,-28.02 -3.16,-42.403 0,-5.879 0.2,-11.73 0.56,-17.539 146.71,38.016 255.08,171.328 255.08,329.965 0,188.224 -152.59,340.804 -340.83,340.804"
         style="fill:#231f20;fill-opacity:1;fill-rule:nonzero;stroke:none"
         id="path24444"
         inkscape:connector-curvature="0" /></g></g><g
     inkscape:groupmode="layer"
     id="layer2"
     inkscape:label="0"
     style="display:inline"><rect
       style="display:inline;opacity:1;fill:#000000;fill-opacity:0.50196081;fill-rule:nonzero;stroke:none;stroke-width:20.39999962;stroke-linecap:square;stroke-linejoin:miter;stroke-miterlimit:4;stroke-dasharray:none;stroke-opacity:1"
       id="rect8071-3-4"
       width="681.84003"
       height="681.82465"
       x="1647.1121"
       y="-1163.2378"
       transform="matrix(0.125,0,0,0.12500281,0,166.4375)" /><rect
       style="display:inline;opacity:1;fill:#000000;fill-opacity:0.50196081;fill-rule:nonzero;stroke:none;stroke-width:20.39999962;stroke-linecap:square;stroke-linejoin:miter;stroke-miterlimit:4;stroke-dasharray:none;stroke-opacity:1"
       id="rect8071-4-3"
       width="681.84003"
       height="681.82465"
       x="1276.832"
       y="-850.80487"
       transform="matrix(0.125,0,0,0.12500281,0,166.4375)" /><rect
       style="display:inline;opacity:1;fill:#000000;fill-opacity:0.50196081;fill-rule:nonzero;stroke:none;stroke-width:20.39999962;stroke-linecap:square;stroke-linejoin:miter;stroke-miterlimit:4;stroke-dasharray:none;stroke-opacity:1"
       id="rect8071-3"
       width="681.84003"
       height="681.82465"
       x="908.67999"
       y="-1163.2378"
       transform="matrix(0.125,0,0,0.12500281,0,166.4375)" /><rect
       style="display:inline;opacity:1;fill:#000000;fill-opacity:0.50196081;fill-rule:nonzero;stroke:none;stroke-width:20.39999962;stroke-linecap:square;stroke-linejoin:miter;stroke-miterlimit:4;stroke-dasharray:none;stroke-opacity:1"
       id="rect8071-4"
       width="681.84003"
       height="681.82465"
       x="538.37598"
       y="-850.80487"
       transform="matrix(0.125,0,0,0.12500281,0,166.4375)" /><rect
       style="display:inline;opacity:1;fill:#000000;fill-opacity:0.50196081;fill-rule:nonzero;stroke:none;stroke-width:20.39999962;stroke-linecap:square;stroke-linejoin:miter;stroke-miterlimit:4;stroke-dasharray:none;stroke-opacity:1"
       id="rect8071"
       width="681.84003"
       height="681.82465"
       x="169.2"
       y="-1163.4938"
       transform="matrix(0.125,0,0,0.12500281,0,166.4375)" /></g></svg>