<?xml version="1.0" encoding="UTF-8" standalone="no"?>
<!-- Created with Inkscape (http://www.inkscape.org/) -->

<svg
   xmlns:dc="http://purl.org/dc/elements/1.1/"
   xmlns:cc="http://creativecommons.org/ns#"
   xmlns:rdf="http://www.w3.org/1999/02/22-rdf-syntax-ns#"
   xmlns:svg="http://www.w3.org/2000/svg"
   xmlns="http://www.w3.org/2000/svg"
   xmlns:sodipodi="http://sodipodi.sourceforge.net/DTD/sodipodi-0.dtd"
   xmlns:inkscape="http://www.inkscape.org/namespaces/inkscape"
   id="svg23259"
   version="1.1"
   inkscape:version="0.91 r13725"
   xml:space="preserve"
   width="213.60001"
   height="171.8"
   viewBox="0 0 213.60001 171.8"
   sodipodi:docname="paralympic_symbol_white_0.svg"><metadata
     id="metadata23265"><rdf:RDF><cc:Work
         rdf:about=""><dc:format>image/svg+xml</dc:format><dc:type
           rdf:resource="http://purl.org/dc/dcmitype/StillImage" /><dc:title /></cc:Work></rdf:RDF></metadata><defs
     id="defs23263" /><sodipodi:namedview
     pagecolor="#ffffff"
     bordercolor="#666666"
     borderopacity="1"
     objecttolerance="10"
     gridtolerance="10"
     guidetolerance="10"
     inkscape:pageopacity="0"
     inkscape:pageshadow="2"
     inkscape:window-width="1920"
     inkscape:window-height="1027"
     id="namedview23261"
     showgrid="false"
     inkscape:zoom="5.0058206"
     inkscape:cx="106.8"
     inkscape:cy="85.900002"
     inkscape:window-x="-8"
     inkscape:window-y="-8"
     inkscape:window-maximized="1"
     inkscape:current-layer="layer3"
     borderlayer="true"
     inkscape:showpageshadow="false" /><g
     id="g23267"
     inkscape:groupmode="layer"
     inkscape:label="ink_ext_XXXXXX"
     transform="matrix(1.25,0,0,-1.25,0,171.8)"
     style="display:none"><rect
       style="opacity:1;fill:#ffffff;fill-opacity:1;stroke:none;stroke-width:0;stroke-miterlimit:4;stroke-dasharray:none;stroke-opacity:1"
       id="rect23831"
       width="170.63525"
       x="0.5823729"
       y="-136.85762"
       transform="scale(1,-1)"
       height="0" /><g
       id="g23269"
       transform="scale(0.1,0.1)"><path
         d="m 812.359,1173.96 c -7.043,2.61 -16.441,3.93 -27.968,3.93 -85.993,0 -235.387,-63.58 -332.328,-123.37 -87.024,-53.71 -235.739,-165.907 -253.778,-313.711 -8.621,-70.875 5.801,-128.012 42.844,-169.871 62.601,-70.653 172.195,-78.301 216.43,-78.301 27.636,0 46.382,2.804 50.894,4.758 l 1.504,0.695 -0.852,1.383 c -0.585,0.949 -1.363,1.086 -8.515,2.113 -73.973,10.73 -125.41,38.816 -152.848,83.57 -29.566,48.196 -30.347,114.407 -2.39,196.899 76.976,226.755 257.144,300.765 388.687,354.765 28.859,11.86 56.078,23.06 78.488,34.48 l 2.922,1.5 -3.09,1.16"
         style="fill:#c11430;fill-opacity:1;fill-rule:nonzero;stroke:none"
         id="path23271"
         inkscape:connector-curvature="0" /><path
         d="m 1004.71,355.891 c -1.01,0 -1.64,-0.539 -6.495,-4.961 -17.922,-16.129 -72.5,-65.34 -141.629,-65.34 -64.106,0 -122.387,42.531 -173.262,126.375 -124.344,204.902 -65.023,390.566 -21.738,526.152 9.465,29.563 18.352,57.488 24.027,81.863 l 0.754,3.23 -2.914,-1.64 C 660.758,1008.66 632.551,964.695 606.133,900.973 577.926,832.93 555.859,752.305 543.949,673.969 528.305,571.332 517.52,382.734 620.43,272.711 667.836,222.02 719.277,196.309 773.445,196.309 l 0.024,0 c 125.176,0.043 227.661,140.171 232.641,157.722 l 0.53,1.86 -1.93,0"
         style="fill:#1a5eaf;fill-opacity:1;fill-rule:nonzero;stroke:none"
         id="path23273"
         inkscape:connector-curvature="0" /><path
         d="m 1414.44,770.266 -1.42,0.843 -0.68,-1.5 c -0.41,-1.007 -0.07,-1.711 3.15,-8.023 33.7,-66.707 40.19,-124.973 19.26,-173.164 -22.48,-51.899 -76.31,-90.512 -159.91,-114.887 -48.48,-14.14 -97.08,-21.269 -144.34,-21.269 -0.04,0 -0.08,0 -0.08,0 -156.924,0 -279.6,78.695 -369.229,136.195 -26.242,16.844 -51.05,32.742 -73.203,44.512 l -2.953,1.57 0.828,-3.234 c 19.84,-76.172 316.967,-287.688 561.547,-287.688 55.47,0 104.44,11.149 145.56,33.109 77.22,41.18 117.37,98.368 119.4,170.008 3.11,109.516 -86.06,216.297 -97.93,223.528"
         style="fill:#118e51;fill-opacity:1;fill-rule:nonzero;stroke:none"
         id="path23275"
         inkscape:connector-curvature="0" /></g></g><g
     inkscape:groupmode="layer"
     id="layer3"
     inkscape:label="0"
     style="display:inline"><rect
       style="opacity:1;fill:#ffffff;fill-opacity:0.50196081;fill-rule:nonzero;stroke:none;stroke-width:20.39999962;stroke-linecap:square;stroke-linejoin:miter;stroke-miterlimit:4;stroke-dasharray:none;stroke-opacity:1"
       id="rect17098"
       width="619.91998"
       height="701.44"
       x="195.84"
       y="-1193.9199"
       transform="matrix(0.125,0,0,0.125,0,171.8)" /><rect
       style="opacity:1;fill:#ffffff;fill-opacity:0.50196081;fill-rule:nonzero;stroke:none;stroke-width:20.39999962;stroke-linecap:square;stroke-linejoin:miter;stroke-miterlimit:4;stroke-dasharray:none;stroke-opacity:1"
       id="rect17098-9"
       width="473.04001"
       height="826.56"
       x="534.23999"
       y="-1023.12"
       transform="matrix(0.125,0,0,0.125,0,171.8)" /><rect
       style="opacity:1;fill:#ffffff;fill-opacity:0.50196081;fill-rule:nonzero;stroke:none;stroke-width:20.39999962;stroke-linecap:square;stroke-linejoin:miter;stroke-miterlimit:4;stroke-dasharray:none;stroke-opacity:1"
       id="rect17098-9-3"
       width="827.28003"
       height="427.67999"
       x="684.71997"
       y="-771.12"
       transform="matrix(0.125,0,0,0.125,0,171.8)" /></g></svg>