<?xml version="1.0" encoding="UTF-8" standalone="no"?>
<!-- Created with Inkscape (http://www.inkscape.org/) -->

<svg
   xmlns:dc="http://purl.org/dc/elements/1.1/"
   xmlns:cc="http://creativecommons.org/ns#"
   xmlns:rdf="http://www.w3.org/1999/02/22-rdf-syntax-ns#"
   xmlns:svg="http://www.w3.org/2000/svg"
   xmlns="http://www.w3.org/2000/svg"
   xmlns:sodipodi="http://sodipodi.sourceforge.net/DTD/sodipodi-0.dtd"
   xmlns:inkscape="http://www.inkscape.org/namespaces/inkscape"
   width="166"
   height="16"
   viewBox="0 0 166 16"
   id="svg22539"
   version="1.1"
   inkscape:version="0.91 r13725"
   sodipodi:docname="paralympic_word_mark_1_1_color.svg">
  <defs
     id="defs22541" />
  <sodipodi:namedview
     id="base"
     pagecolor="#ffffff"
     bordercolor="#666666"
     borderopacity="1.0"
     inkscape:pageopacity="0.0"
     inkscape:pageshadow="2"
     inkscape:zoom="8.5783133"
     inkscape:cx="83"
     inkscape:cy="8"
     inkscape:document-units="px"
     inkscape:current-layer="layer1"
     showgrid="true"
     units="px"
     borderlayer="true"
     inkscape:showpageshadow="false"
     inkscape:window-width="1920"
     inkscape:window-height="1027"
     inkscape:window-x="1016"
     inkscape:window-y="-8"
     inkscape:window-maximized="1"
     inkscape:object-paths="true"
     inkscape:snap-intersection-paths="true"
     inkscape:object-nodes="true"
     inkscape:snap-smooth-nodes="true">
    <inkscape:grid
       type="xygrid"
       id="grid23087"
       empspacing="8" />
  </sodipodi:namedview>
  <metadata
     id="metadata22544">
    <rdf:RDF>
      <cc:Work
         rdf:about="">
        <dc:format>image/svg+xml</dc:format>
        <dc:type
           rdf:resource="http://purl.org/dc/dcmitype/StillImage" />
        <dc:title></dc:title>
      </cc:Work>
    </rdf:RDF>
  </metadata>
  <g
     inkscape:label="レイヤー 1"
     inkscape:groupmode="layer"
     id="layer1"
     transform="translate(0,-1036.3622)">
    <path
       id="path23091"
       style="fill:#404040;fill-opacity:1;fill-rule:evenodd;stroke:none;stroke-width:1px;stroke-linecap:butt;stroke-linejoin:miter;stroke-opacity:1"
       d="m 2,1038.3622 4,0 0,5 -4,0 z m -2,-2 0,16 2,0 0,-7 6,0 0,-9 z"
       inkscape:connector-curvature="0"
       sodipodi:nodetypes="cccccccccccc" />
    <path
       id="path23096"
       style="fill:#404040;fill-opacity:1;fill-rule:evenodd;stroke:none;stroke-width:1px;stroke-linecap:butt;stroke-linejoin:miter;stroke-opacity:1"
       d="m 13,1038.3622 0,5 4,0 0,-5 z m -2,-2 0,16 2,0 0,-7 4,0 0,7 2,0 0,-16 z"
       inkscape:connector-curvature="0"
       sodipodi:nodetypes="cccccccccccccc" />
    <path
       id="path23101"
       style="fill:#404040;fill-opacity:1;fill-rule:evenodd;stroke:none;stroke-width:1px;stroke-linecap:butt;stroke-linejoin:miter;stroke-opacity:1"
       d="m 24,1038.3622 0,5 4,0 0,-5 z m -2,-2 0,16 2,0 0,-7 2,0 0,7 4,0 0,-2 -2,0 0,-5 2,0 0,-9 z"
       inkscape:connector-curvature="0"
       sodipodi:nodetypes="cccccscccccccccccs" />
    <path
       inkscape:connector-curvature="0"
       id="path23096-0"
       style="fill:#404040;fill-opacity:1;fill-rule:evenodd;stroke:none;stroke-width:1px;stroke-linecap:butt;stroke-linejoin:miter;stroke-opacity:1"
       d="m 35,1038.3622 0,5 4,0 0,-5 z m -2,-2 0,16 2,0 0,-7 4,0 0,7 2,0 0,-16 z"
       sodipodi:nodetypes="cccccccccccccc" />
    <path
       style="fill:#404040;fill-rule:evenodd;stroke:none;stroke-width:1px;stroke-linecap:butt;stroke-linejoin:miter;stroke-opacity:1;fill-opacity:1"
       d="m 44,1036.3622 0,16 8,0 0,-2 -6,0 0,-14 z"
       id="path23119"
       inkscape:connector-curvature="0" />
    <path
       style="fill:#404040;fill-rule:evenodd;stroke:none;stroke-width:1px;stroke-linecap:butt;stroke-linejoin:miter;stroke-opacity:1;fill-opacity:1"
       d="m 52,1036.3622 0,9 3,0 0,7 2,0 0,-7 3,0 0,-9 -2,0 0,7 -4,0 0,-7 z"
       id="path23121"
       inkscape:connector-curvature="0" />
    <path
       style="fill:#404040;fill-rule:evenodd;stroke:none;stroke-width:1px;stroke-linecap:butt;stroke-linejoin:miter;stroke-opacity:1;fill-opacity:1"
       d="m 63,1052.3622 0,-16 10,0 0,16 -2,0 0,-14 -2,0 0,14 -2,0 0,-14 -2,0 0,14 z"
       id="path23123"
       inkscape:connector-curvature="0" />
    <path
       id="path23091-8"
       style="fill:#404040;fill-opacity:1;fill-rule:evenodd;stroke:none;stroke-width:1px;stroke-linecap:butt;stroke-linejoin:miter;stroke-opacity:1"
       d="m 78,1038.3622 4,0 0,5 -4,0 z m -2,-2 0,16 2,0 0,-7 6,0 0,-9 z"
       inkscape:connector-curvature="0"
       sodipodi:nodetypes="cccccccccccc" />
    <path
       style="fill:#404040;fill-rule:evenodd;stroke:none;stroke-width:1px;stroke-linecap:butt;stroke-linejoin:miter;stroke-opacity:1;fill-opacity:1"
       d="m 87,1036.3622 0,16 c 0,0 2,0 2,0 l 0,-16 z"
       id="path23140"
       inkscape:connector-curvature="0" />
    <path
       style="fill:#404040;fill-rule:evenodd;stroke:none;stroke-width:1px;stroke-linecap:butt;stroke-linejoin:miter;stroke-opacity:1;fill-opacity:1"
       d="m 92,1036.3622 0,16 8,0 0,-4 -2,0 0,2 -4,0 0,-12 4,0 0,2 2,0 0,-4 z"
       id="path23142"
       inkscape:connector-curvature="0" />
    <path
       style="fill:#404040;fill-rule:evenodd;stroke:none;stroke-width:1px;stroke-linecap:butt;stroke-linejoin:miter;stroke-opacity:1;fill-opacity:1"
       d="m 112,1036.3622 0,16 8,0 0,-9 -4,0 0,2 2,0 0,5 -4,0 0,-12 4,0 0,2 2,0 0,-4 z"
       id="path23144"
       inkscape:connector-curvature="0" />
    <path
       inkscape:connector-curvature="0"
       id="path23096-0-1"
       style="fill:#404040;fill-opacity:1;fill-rule:evenodd;stroke:none;stroke-width:1px;stroke-linecap:butt;stroke-linejoin:miter;stroke-opacity:1"
       d="m 125,1038.3622 0,5 4,0 0,-5 z m -2,-2 0,16 2,0 0,-7 4,0 0,7 2,0 0,-16 z"
       sodipodi:nodetypes="cccccccccccccc" />
    <path
       style="fill:#404040;fill-opacity:1;fill-rule:evenodd;stroke:none;stroke-width:1px;stroke-linecap:butt;stroke-linejoin:miter;stroke-opacity:1"
       d="m 134,1052.3622 0,-16 10,0 0,16 -2,0 0,-14 -2,0 0,14 -2,0 0,-14 -2,0 0,14 z"
       id="path23123-1"
       inkscape:connector-curvature="0" />
    <path
       style="fill:#404040;fill-rule:evenodd;stroke:none;stroke-width:1px;stroke-linecap:butt;stroke-linejoin:miter;stroke-opacity:1;fill-opacity:1"
       d="m 147,1036.3622 0,16 8,0 0,-2 -6,0 0,-5 6,0 0,-2 -6,0 0,-5 c 0,0 6,0 6,0 l 0,-2 z"
       id="path23176"
       inkscape:connector-curvature="0" />
    <path
       style="fill:#404040;fill-rule:evenodd;stroke:none;stroke-width:1px;stroke-linecap:butt;stroke-linejoin:miter;stroke-opacity:1;fill-opacity:1"
       d="m 158,1036.3622 0,9 6,0 0,5 -4,0 0,-2 -2,0 0,4 8,0 0,-9 -6,0 0,-5 4,0 0,2 2,0 0,-4 z"
       id="path23178"
       inkscape:connector-curvature="0" />
  </g>
</svg>
