<?xml version="1.0" encoding="UTF-8" standalone="no"?>
<!-- Created with Inkscape (http://www.inkscape.org/) -->

<svg
   xmlns:dc="http://purl.org/dc/elements/1.1/"
   xmlns:cc="http://creativecommons.org/ns#"
   xmlns:rdf="http://www.w3.org/1999/02/22-rdf-syntax-ns#"
   xmlns:svg="http://www.w3.org/2000/svg"
   xmlns="http://www.w3.org/2000/svg"
   xmlns:sodipodi="http://sodipodi.sourceforge.net/DTD/sodipodi-0.dtd"
   xmlns:inkscape="http://www.inkscape.org/namespaces/inkscape"
   width="83"
   height="16"
   viewBox="0 0 83.000001 16"
   id="svg21871"
   version="1.1"
   inkscape:version="0.91 r13725"
   sodipodi:docname="word_mark_1_color.svg">
  <defs
     id="defs21873" />
  <sodipodi:namedview
     id="base"
     pagecolor="#ffffff"
     bordercolor="#666666"
     borderopacity="1.0"
     inkscape:pageopacity="0.0"
     inkscape:pageshadow="2"
     inkscape:zoom="17.156627"
     inkscape:cx="45.567259"
     inkscape:cy="8"
     inkscape:document-units="px"
     inkscape:current-layer="layer1"
     showgrid="true"
     units="px"
     borderlayer="true"
     inkscape:showpageshadow="false"
     inkscape:window-width="1920"
     inkscape:window-height="1027"
     inkscape:window-x="1016"
     inkscape:window-y="-8"
     inkscape:window-maximized="1">
    <inkscape:grid
       type="xygrid"
       id="grid22419"
       empspacing="8"
       dotted="false" />
  </sodipodi:namedview>
  <metadata
     id="metadata21876">
    <rdf:RDF>
      <cc:Work
         rdf:about="">
        <dc:format>image/svg+xml</dc:format>
        <dc:type
           rdf:resource="http://purl.org/dc/dcmitype/StillImage" />
        <dc:title />
      </cc:Work>
    </rdf:RDF>
  </metadata>
  <g
     inkscape:label="レイヤー 1"
     inkscape:groupmode="layer"
     id="layer1"
     transform="translate(0,-1036.3622)">
    <path
       style="fill:#404040;fill-rule:evenodd;stroke:none;stroke-width:1px;stroke-linecap:butt;stroke-linejoin:miter;stroke-opacity:1;fill-opacity:1"
       d="m 1,1052.3622 0,-8 -1,0 0,-8 8,0 0,8 -1,0 0,8 z"
       id="path22421"
       inkscape:connector-curvature="0" />
    <path
       id="path22427"
       style="fill:#404040;fill-rule:evenodd;stroke:none;stroke-width:1px;stroke-linecap:butt;stroke-linejoin:miter;stroke-opacity:1;fill-opacity:1"
       d="m 12,1043.3622 2,0 0,2 -2,0 z m -2,-7 0,1 -1,0 0,14 1,0 0,1 6,0 0,-1 1,0 0,-14 -1,0 0,-1 z" />
    <path
       style="fill:#404040;fill-rule:evenodd;stroke:none;stroke-width:1px;stroke-linecap:butt;stroke-linejoin:miter;stroke-opacity:1;fill-opacity:1"
       d="m 18,1036.3622 0,16 3,0 0,-2 2,0 0,2 3,0 0,-7 -2,0 0,-2 2,0 0,-7 -3,0 0,2 -2,0 0,-2 z"
       id="path22430"
       inkscape:connector-curvature="0" />
    <path
       style="fill:#404040;fill-rule:evenodd;stroke:none;stroke-width:1px;stroke-linecap:butt;stroke-linejoin:miter;stroke-opacity:1;fill-opacity:1"
       d="m 27,1036.3622 0,8 1,0 0,8 6,0 0,-8 1,0 0,-8 -3,0 0,2 -2,0 0,-2 z"
       id="path22432"
       inkscape:connector-curvature="0" />
    <path
       inkscape:connector-curvature="0"
       id="path22427-8"
       style="fill:#404040;fill-opacity:1;fill-rule:evenodd;stroke:none;stroke-width:1px;stroke-linecap:butt;stroke-linejoin:miter;stroke-opacity:1"
       d="m 39,1043.3622 2,0 0,2 -2,0 z m -2,-7 0,1 -1,0 0,14 1,0 0,1 6,0 0,-1 1,0 0,-14 -1,0 0,-1 z" />
    <path
       style="fill:#404040;fill-rule:evenodd;stroke:none;stroke-width:1px;stroke-linecap:butt;stroke-linejoin:miter;stroke-opacity:1;fill-opacity:1"
       d="m 48,1036.3622 0,4 2,0 0,2 -2,0 0,9 1,0 0,1 7,0 0,-4 -2,0 0,-2 2,0 0,-9 -1,0 0,-1 z"
       id="path22449"
       inkscape:connector-curvature="0" />
    <path
       id="path22468"
       style="fill:#404040;fill-rule:evenodd;stroke:none;stroke-width:1px;stroke-linecap:butt;stroke-linejoin:miter;stroke-opacity:1;fill-opacity:1"
       d="m 60,1042.3622 2,0 0,4 -2,0 z m -2,-6 0,1 -1,0 0,14 1,0 0,1 6,0 0,-1 1,0 0,-14 -1,0 0,-1 z" />
    <path
       style="fill:#404040;fill-opacity:1;fill-rule:evenodd;stroke:none;stroke-width:1px;stroke-linecap:butt;stroke-linejoin:miter;stroke-opacity:1"
       d="m 66,1036.3622 0,4 2,0 0,2 -2,0 0,9 1,0 0,1 7,0 0,-4 -2,0 0,-2 2,0 0,-9 -1,0 0,-1 z"
       id="path22449-2"
       inkscape:connector-curvature="0" />
    <path
       inkscape:connector-curvature="0"
       id="path22468-9"
       style="fill:#404040;fill-opacity:1;fill-rule:evenodd;stroke:none;stroke-width:1px;stroke-linecap:butt;stroke-linejoin:miter;stroke-opacity:1"
       d="m 78,1042.3622 2,0 0,4 -2,0 z m -2,-6 0,1 -1,0 0,14 1,0 0,1 6,0 0,-1 1,0 0,-14 -1,0 0,-1 z" />
  </g>
</svg>
